# xmcd
# 
# Track frame offsets:
#     150
#     22155
#     41617
#     63952
#     82632
#     98845
#     123652
#     144970
#     166090
#     185487
# 
# Disc length: 2740
# 
# Revision: 6
# Processed by: cddbd v1.5.2PL0 Copyright (c) Steve Scherf et al.
# Submitted via: fre:ac v1.0.17
# 
DISCID=790ab20a
DTITLE=STARDUST REVUE - SOLA
DYEAR=1993
DGENRE=JPop
TTITLE0=木蘭の涙
TTITLE1=Lovers In The Sky
TTITLE2=翼にのせて
TTITLE3=午後のロマンス
TTITLE4=Rock'n Roll Blues
TTITLE5=少年
TTITLE6=もう一度抱きしめて
TTITLE7=想い出にたりない
TTITLE8=Dreaming Again
TTITLE9=Simple Song
EXTD=
EXTT0=
EXTT1=
EXTT2=
EXTT3=
EXTT4=
EXTT5=
EXTT6=
EXTT7=
EXTT8=
EXTT9=
PLAYORDER=
